{
    "asset" : {
        "generator" : "Khronos glTF Blender I/O v1.6.16",
        "version" : "2.0"
    },
    "scene" : 0,
    "scenes" : [
        {
            "name" : "Scene",
            "nodes" : [
                8
            ]
        }
    ],
    "nodes" : [
        {
            "mesh" : 0,
            "name" : "SM_Wep_Rifle_Assault_Flash_01"
        },
        {
            "mesh" : 1,
            "name" : "SM_Wep_Rifle_Assault_Mag_01"
        },
        {
            "mesh" : 2,
            "name" : "SM_Wep_Rifle_Assault_Sight_01"
        },
        {
            "mesh" : 3,
            "name" : "SM_Wep_Rifle_Assault_Sight_02"
        },
        {
            "mesh" : 4,
            "name" : "SM_Wep_Rifle_Assault_Slide_01"
        },
        {
            "mesh" : 5,
            "name" : "SM_Wep_Rifle_Assault_Stock_01"
        },
        {
            "mesh" : 6,
            "name" : "SM_Wep_Rifle_Assault_Trigger_01"
        },
        {
            "children" : [
                0,
                1,
                2,
                3,
                4,
                5,
                6
            ],
            "mesh" : 7,
            "name" : "SM_Wep_Rifle_Assault_01",
            "rotation" : [
                -0.70710688829422,
                0.7071066498756409,
                0,
                1.1520231879558196e-07
            ],
            "translation" : [
                -56.561279296875,
                24.369766235351562,
                -4.387125015258789
            ]
        },
        {
            "children" : [
                7
            ],
            "mesh" : 8,
            "name" : "Character_MercenaryMale_01",
            "rotation" : [
                0.7071068286895752,
                0,
                0,
                0.7071068286895752
            ]
        }
    ],
    "materials" : [
        {
            "doubleSided" : true,
            "name" : "lambert56",
            "pbrMetallicRoughness" : {
                "metallicFactor" : 0,
                "roughnessFactor" : 0.5527864098548889
            }
        },
        {
            "doubleSided" : true,
            "name" : "lambert2",
            "pbrMetallicRoughness" : {
                "metallicFactor" : 0,
                "roughnessFactor" : 0.5527864098548889
            }
        }
    ],
    "meshes" : [
        {
            "name" : "Mesh.028",
            "primitives" : [
                {
                    "attributes" : {
                        "POSITION" : 0,
                        "NORMAL" : 1,
                        "TEXCOORD_0" : 2
                    },
                    "indices" : 3,
                    "material" : 0
                }
            ]
        },
        {
            "name" : "Mesh.027",
            "primitives" : [
                {
                    "attributes" : {
                        "POSITION" : 4,
                        "NORMAL" : 5,
                        "TEXCOORD_0" : 6
                    },
                    "indices" : 7,
                    "material" : 0
                }
            ]
        },
        {
            "name" : "Mesh.024",
            "primitives" : [
                {
                    "attributes" : {
                        "POSITION" : 8,
                        "NORMAL" : 9,
                        "TEXCOORD_0" : 10
                    },
                    "indices" : 11,
                    "material" : 0
                }
            ]
        },
        {
            "name" : "Mesh.025",
            "primitives" : [
                {
                    "attributes" : {
                        "POSITION" : 12,
                        "NORMAL" : 13,
                        "TEXCOORD_0" : 14
                    },
                    "indices" : 15,
                    "material" : 0
                }
            ]
        },
        {
            "name" : "Mesh.026",
            "primitives" : [
                {
                    "attributes" : {
                        "POSITION" : 16,
                        "NORMAL" : 17,
                        "TEXCOORD_0" : 18
                    },
                    "indices" : 19,
                    "material" : 0
                }
            ]
        },
        {
            "name" : "Mesh.023",
            "primitives" : [
                {
                    "attributes" : {
                        "POSITION" : 20,
                        "NORMAL" : 21,
                        "TEXCOORD_0" : 22
                    },
                    "indices" : 23,
                    "material" : 0
                }
            ]
        },
        {
            "name" : "Mesh.022",
            "primitives" : [
                {
                    "attributes" : {
                        "POSITION" : 24,
                        "NORMAL" : 25,
                        "TEXCOORD_0" : 26
                    },
                    "indices" : 27,
                    "material" : 0
                }
            ]
        },
        {
            "name" : "Mesh.021",
            "primitives" : [
                {
                    "attributes" : {
                        "POSITION" : 28,
                        "NORMAL" : 29,
                        "TEXCOORD_0" : 30
                    },
                    "indices" : 31,
                    "material" : 0
                }
            ]
        },
        {
            "name" : "Mesh.001",
            "primitives" : [
                {
                    "attributes" : {
                        "POSITION" : 32,
                        "NORMAL" : 33,
                        "TEXCOORD_0" : 34
                    },
                    "indices" : 35,
                    "material" : 1
                }
            ]
        }
    ],
    "accessors" : [
        {
            "bufferView" : 0,
            "componentType" : 5126,
            "count" : 256,
            "max" : [
                1.3941559791564941,
                66.49623107910156,
                -7.173072814941406
            ],
            "min" : [
                -1.3288731575012207,
                58.83201217651367,
                -9.896102905273438
            ],
            "type" : "VEC3"
        },
        {
            "bufferView" : 1,
            "componentType" : 5126,
            "count" : 256,
            "type" : "VEC3"
        },
        {
            "bufferView" : 2,
            "componentType" : 5126,
            "count" : 256,
            "type" : "VEC2"
        },
        {
            "bufferView" : 3,
            "componentType" : 5123,
            "count" : 432,
            "type" : "SCALAR"
        },
        {
            "bufferView" : 4,
            "componentType" : 5126,
            "count" : 330,
            "max" : [
                1.3690365552902222,
                19.242223739624023,
                13.769340515136719
            ],
            "min" : [
                -1.409029483795166,
                9.883989334106445,
                -4.950965881347656
            ],
            "type" : "VEC3"
        },
        {
            "bufferView" : 5,
            "componentType" : 5126,
            "count" : 330,
            "type" : "VEC3"
        },
        {
            "bufferView" : 6,
            "componentType" : 5126,
            "count" : 330,
            "type" : "VEC2"
        },
        {
            "bufferView" : 7,
            "componentType" : 5123,
            "count" : 672,
            "type" : "SCALAR"
        },
        {
            "bufferView" : 8,
            "componentType" : 5126,
            "count" : 300,
            "max" : [
                1.0382230281829834,
                44.67438888549805,
                -13.188667297363281
            ],
            "min" : [
                -1.088871717453003,
                42.796146392822266,
                -19.68743896484375
            ],
            "type" : "VEC3"
        },
        {
            "bufferView" : 9,
            "componentType" : 5126,
            "count" : 300,
            "type" : "VEC3"
        },
        {
            "bufferView" : 10,
            "componentType" : 5126,
            "count" : 300,
            "type" : "VEC2"
        },
        {
            "bufferView" : 11,
            "componentType" : 5123,
            "count" : 582,
            "type" : "SCALAR"
        },
        {
            "bufferView" : 12,
            "componentType" : 5126,
            "count" : 292,
            "max" : [
                1.7596137523651123,
                -2.648834228515625,
                -13.870529174804688
            ],
            "min" : [
                -1.8102625608444214,
                -4.662291526794434,
                -18.970794677734375
            ],
            "type" : "VEC3"
        },
        {
            "bufferView" : 13,
            "componentType" : 5126,
            "count" : 292,
            "type" : "VEC3"
        },
        {
            "bufferView" : 14,
            "componentType" : 5126,
            "count" : 292,
            "type" : "VEC2"
        },
        {
            "bufferView" : 15,
            "componentType" : 5123,
            "count" : 528,
            "type" : "SCALAR"
        },
        {
            "bufferView" : 16,
            "componentType" : 5126,
            "count" : 109,
            "max" : [
                1.3947099447250366,
                26.83348846435547,
                -11.068130493164062
            ],
            "min" : [
                -4.053016185760498,
                8.673788070678711,
                -12.636314392089844
            ],
            "type" : "VEC3"
        },
        {
            "bufferView" : 17,
            "componentType" : 5126,
            "count" : 109,
            "type" : "VEC3"
        },
        {
            "bufferView" : 18,
            "componentType" : 5126,
            "count" : 109,
            "type" : "VEC2"
        },
        {
            "bufferView" : 19,
            "componentType" : 5123,
            "count" : 180,
            "type" : "SCALAR"
        },
        {
            "bufferView" : 20,
            "componentType" : 5126,
            "count" : 401,
            "max" : [
                2.6170873641967773,
                -6.145288467407227,
                6.922340393066406
            ],
            "min" : [
                -3.051874876022339,
                -38.383628845214844,
                -13.620132446289062
            ],
            "type" : "VEC3"
        },
        {
            "bufferView" : 21,
            "componentType" : 5126,
            "count" : 401,
            "type" : "VEC3"
        },
        {
            "bufferView" : 22,
            "componentType" : 5126,
            "count" : 401,
            "type" : "VEC2"
        },
        {
            "bufferView" : 23,
            "componentType" : 5123,
            "count" : 708,
            "type" : "SCALAR"
        },
        {
            "bufferView" : 24,
            "componentType" : 5126,
            "count" : 96,
            "max" : [
                0.4074154794216156,
                6.359798431396484,
                1.1958847045898438
            ],
            "min" : [
                -0.4474087655544281,
                3.3966293334960938,
                -3.1605453491210938
            ],
            "type" : "VEC3"
        },
        {
            "bufferView" : 25,
            "componentType" : 5126,
            "count" : 96,
            "type" : "VEC3"
        },
        {
            "bufferView" : 26,
            "componentType" : 5126,
            "count" : 96,
            "type" : "VEC2"
        },
        {
            "bufferView" : 27,
            "componentType" : 5123,
            "count" : 156,
            "type" : "SCALAR"
        },
        {
            "bufferView" : 28,
            "componentType" : 5126,
            "count" : 2942,
            "max" : [
                3.331402063369751,
                59.118045806884766,
                10.489837646484375
            ],
            "min" : [
                -4.106509685516357,
                -8.983081817626953,
                -15.065803527832031
            ],
            "type" : "VEC3"
        },
        {
            "bufferView" : 29,
            "componentType" : 5126,
            "count" : 2942,
            "type" : "VEC3"
        },
        {
            "bufferView" : 30,
            "componentType" : 5126,
            "count" : 2942,
            "type" : "VEC2"
        },
        {
            "bufferView" : 31,
            "componentType" : 5123,
            "count" : 5460,
            "type" : "SCALAR"
        },
        {
            "bufferView" : 32,
            "componentType" : 5126,
            "count" : 3628,
            "max" : [
                102.31050872802734,
                15.060302734375,
                100.11341094970703
            ],
            "min" : [
                -102.1978530883789,
                -15.454022407531738,
                -79.02531433105469
            ],
            "type" : "VEC3"
        },
        {
            "bufferView" : 33,
            "componentType" : 5126,
            "count" : 3628,
            "type" : "VEC3"
        },
        {
            "bufferView" : 34,
            "componentType" : 5126,
            "count" : 3628,
            "type" : "VEC2"
        },
        {
            "bufferView" : 35,
            "componentType" : 5123,
            "count" : 5076,
            "type" : "SCALAR"
        }
    ],
    "bufferViews" : [
        {
            "buffer" : 0,
            "byteLength" : 3072,
            "byteOffset" : 0
        },
        {
            "buffer" : 0,
            "byteLength" : 3072,
            "byteOffset" : 3072
        },
        {
            "buffer" : 0,
            "byteLength" : 2048,
            "byteOffset" : 6144
        },
        {
            "buffer" : 0,
            "byteLength" : 864,
            "byteOffset" : 8192
        },
        {
            "buffer" : 0,
            "byteLength" : 3960,
            "byteOffset" : 9056
        },
        {
            "buffer" : 0,
            "byteLength" : 3960,
            "byteOffset" : 13016
        },
        {
            "buffer" : 0,
            "byteLength" : 2640,
            "byteOffset" : 16976
        },
        {
            "buffer" : 0,
            "byteLength" : 1344,
            "byteOffset" : 19616
        },
        {
            "buffer" : 0,
            "byteLength" : 3600,
            "byteOffset" : 20960
        },
        {
            "buffer" : 0,
            "byteLength" : 3600,
            "byteOffset" : 24560
        },
        {
            "buffer" : 0,
            "byteLength" : 2400,
            "byteOffset" : 28160
        },
        {
            "buffer" : 0,
            "byteLength" : 1164,
            "byteOffset" : 30560
        },
        {
            "buffer" : 0,
            "byteLength" : 3504,
            "byteOffset" : 31724
        },
        {
            "buffer" : 0,
            "byteLength" : 3504,
            "byteOffset" : 35228
        },
        {
            "buffer" : 0,
            "byteLength" : 2336,
            "byteOffset" : 38732
        },
        {
            "buffer" : 0,
            "byteLength" : 1056,
            "byteOffset" : 41068
        },
        {
            "buffer" : 0,
            "byteLength" : 1308,
            "byteOffset" : 42124
        },
        {
            "buffer" : 0,
            "byteLength" : 1308,
            "byteOffset" : 43432
        },
        {
            "buffer" : 0,
            "byteLength" : 872,
            "byteOffset" : 44740
        },
        {
            "buffer" : 0,
            "byteLength" : 360,
            "byteOffset" : 45612
        },
        {
            "buffer" : 0,
            "byteLength" : 4812,
            "byteOffset" : 45972
        },
        {
            "buffer" : 0,
            "byteLength" : 4812,
            "byteOffset" : 50784
        },
        {
            "buffer" : 0,
            "byteLength" : 3208,
            "byteOffset" : 55596
        },
        {
            "buffer" : 0,
            "byteLength" : 1416,
            "byteOffset" : 58804
        },
        {
            "buffer" : 0,
            "byteLength" : 1152,
            "byteOffset" : 60220
        },
        {
            "buffer" : 0,
            "byteLength" : 1152,
            "byteOffset" : 61372
        },
        {
            "buffer" : 0,
            "byteLength" : 768,
            "byteOffset" : 62524
        },
        {
            "buffer" : 0,
            "byteLength" : 312,
            "byteOffset" : 63292
        },
        {
            "buffer" : 0,
            "byteLength" : 35304,
            "byteOffset" : 63604
        },
        {
            "buffer" : 0,
            "byteLength" : 35304,
            "byteOffset" : 98908
        },
        {
            "buffer" : 0,
            "byteLength" : 23536,
            "byteOffset" : 134212
        },
        {
            "buffer" : 0,
            "byteLength" : 10920,
            "byteOffset" : 157748
        },
        {
            "buffer" : 0,
            "byteLength" : 43536,
            "byteOffset" : 168668
        },
        {
            "buffer" : 0,
            "byteLength" : 43536,
            "byteOffset" : 212204
        },
        {
            "buffer" : 0,
            "byteLength" : 29024,
            "byteOffset" : 255740
        },
        {
            "buffer" : 0,
            "byteLength" : 10152,
            "byteOffset" : 284764
        }
    ],
    "buffers" : [
        {
            "byteLength" : 294916,
            "uri" : "data:application/octet-stream;base64,"
        }
    ]
}
