{"asset":{"version":"2.0","generator":"Unity 2021.3.38f1 glTFast 6.7.1"},"nodes":[{"name":"Character_MercenaryMale_01","mesh":0},{"name":"Finger_04","translation":[0.0300323889,2.126771E-16,-1.110223E-18],"rotation":[0.01664637,-0.0965253338,0.169130057,0.98071444]},{"name":"Finger_03","children":[1],"translation":[0.03513327,-3.00324E-16,3.77475766E-17],"rotation":[-0.0181492269,0.07147895,-0.09251083,0.9929769]},{"name":"Finger_02","children":[2],"translation":[0.04248815,-1.058181E-17,-8.326673E-18],"rotation":[0.00263727061,-0.0194920246,-0.0212693289,0.999580264]},{"name":"Finger_01","children":[3],"translation":[0.0998252556,-0.00115958892,-0.0328333974],"rotation":[-0.00248643151,0.0438797474,-0.056519255,0.9974337]},{"name":"IndexFinger_04","translation":[0.03779794,-1.928405E-16,-9.992007E-18],"rotation":[-0.004519649,0.0280399285,0.159068018,0.986859]},{"name":"IndexFinger_03","children":[5],"translation":[0.03791188,-2.1462E-16,-3.830269E-17],"rotation":[-0.00691219559,0.0257174131,-0.0570024028,0.9980188]},{"name":"IndexFinger_02","children":[6],"translation":[0.04093632,-1.527641E-18,2.442491E-17],"rotation":[-0.001153992,0.0107416362,-0.09832994,0.995095253]},{"name":"IndexFinger_01","children":[7],"translation":[0.103965595,0.003987151,0.0267265011],"rotation":[0.000280495326,-0.0657944456,-0.004253931,0.997824132]},{"name":"Thumb_03","translation":[0.0566556975,2.91155982E-16,3.99680272E-17],"rotation":[-0.0364032574,0.152034685,0.22999534,0.9605532]},{"name":"Thumb_02","children":[9],"translation":[0.06370214,-6.106227E-18,4.440892E-18],"rotation":[-0.0399420261,0.1178403,-0.14163579,0.982068062]},{"name":"Thumb_01","children":[10],"translation":[0.03514048,-0.0117069194,0.04505539],"rotation":[0.0254806448,-0.2768427,-0.08803956,0.9565343]},{"name":"Hand_L","children":[4,8,11],"translation":[0.2711453,0,-0.000381364283],"rotation":[-2.80046629E-17,0.035830766,-1.33515728E-15,0.9993579]},{"name":"Elbow_L","children":[12],"translation":[0.339474,-0.001449071,-0.001436264],"rotation":[0.00168383273,-0.0407495946,0.0412518755,0.99831605]},{"name":"Shoulder_L","children":[13],"translation":[0.1319787,-4.857226E-19,-2.664535E-17],"rotation":[0.0113281226,-0.236859962,-0.03380652,0.9708894]},{"name":"Clavicle_L","children":[14],"translation":[0.05801173,-0.04191448,-0.07447154],"rotation":[-0.578547537,-0.6324858,0.3525134,-0.375471324]},{"name":"Finger_04 1","translation":[-0.03003113,1.133471E-06,3.591099E-07],"rotation":[0.01664637,-0.0965253338,0.169130057,0.98071444]},{"name":"Finger_03 1","children":[16],"translation":[-0.03513324,-1.99784807E-07,1.485361E-08],"rotation":[-0.0181492269,0.07147895,-0.09251083,0.9929769]},{"name":"Finger_02 1","children":[17],"translation":[-0.042488087,2.653442E-07,-1.978993E-08],"rotation":[0.00263727061,-0.0194920246,-0.0212693289,0.999580264]},{"name":"Finger_01 1","children":[18],"translation":[-0.099825,0.00116,0.0328333974],"rotation":[-0.00248643151,0.0438797474,-0.056519255,0.9974337]},{"name":"IndexFinger_04 1","translation":[-0.03779333,-5.26570875E-06,-1.55073792E-07],"rotation":[-0.004519649,0.0280399285,0.159068018,0.986859]},{"name":"IndexFinger_03 1","children":[20],"translation":[-0.03791213,3.24998314E-06,-4.545292E-08],"rotation":[-0.00691219559,0.0257174131,-0.0570024028,0.9980188]},{"name":"IndexFinger_02 1","children":[21],"translation":[-0.04093591,9.698692E-07,-4.956748E-08],"rotation":[-0.001153992,0.0107416362,-0.09832994,0.995095253]},{"name":"IndexFinger_01 1","children":[22],"translation":[-0.103966,-0.00398999965,-0.0267265011],"rotation":[0.000280495326,-0.0657944456,-0.004253931,0.997824132]},{"name":"Thumb_03 1","translation":[-0.0566550754,9.835502E-08,-2.02795391E-07],"rotation":[-0.0364032574,0.152034685,0.22999534,0.9605532]},{"name":"Thumb_02 1","children":[24],"translation":[-0.06370146,-7.811825E-06,4.36381185E-07],"rotation":[-0.0399420261,0.1178403,-0.14163579,0.982068062]},{"name":"Thumb_01 1","children":[25],"translation":[-0.03514,0.01171,-0.0450553969],"rotation":[0.0254806448,-0.2768427,-0.08803956,0.9565343]},{"name":"Hand_R","children":[19,23,26],"translation":[-0.2711449,-2.842171E-16,0.0003813609],"rotation":[-8.872152E-17,0.035830766,1.505115E-15,0.9993579]},{"name":"Elbow_R","children":[27],"translation":[-0.3394746,0.001447586,0.001436264],"rotation":[0.00168383273,-0.0407495946,0.0412518755,0.99831605]},{"name":"Shoulder_R","children":[28],"translation":[-0.1319786,6.473392E-06,4.73534172E-08],"rotation":[0.0113281226,-0.236859962,-0.03380652,0.9708894]},{"name":"Clavicle_R","children":[29],"translation":[0.05801534,-0.04191418,0.0744715],"rotation":[0.632485867,-0.578547537,-0.375471383,-0.3525134]},{"name":"Eyebrows","translation":[-2.52435484E-31,0.1276692,0.1227221]},{"name":"Eyes","translation":[2.051038E-31,0.09447606,0.1227221]},{"name":"Head","children":[31,32],"translation":[0.1216444,-1.50990293E-16,-5.059176E-17],"rotation":[0.458571,0.5382496,-0.458571,0.5382496]},{"name":"Neck","children":[33],"translation":[0.11188969,-6.661338E-18,-4.62441277E-17],"rotation":[-4.00624019E-17,-1.29165981E-15,-0.04173335,0.9991288]},{"name":"Spine_03","children":[15,30,34],"translation":[0.1790372,2.22044592E-17,7.509726E-17],"rotation":[0.9938103,0.111090317,-3.56366679E-17,-7.279128E-16]},{"name":"Spine_02","children":[35],"translation":[0.1815117,1.55431191E-17,-7.101073E-17],"rotation":[0.99518615,0.09800279,5.11927337E-16,-1.00441622E-15]},{"name":"Spine_01","children":[36],"translation":[0.1039326,1.33226793E-17,4.615537E-17],"rotation":[0.9950197,0.09967895,-1.30909143E-15,1.92680818E-16]},{"name":"Toes_L","translation":[-0.0729575,2.664535E-17,1.776357E-17],"rotation":[-2.73605818E-13,0.7071068,2.73605818E-13,0.7071068]},{"name":"Ball_L","children":[38],"translation":[-0.112840295,-1.684957E-08,-7.10542654E-17],"rotation":[3.56904447E-15,-4.99708231E-15,0.2700158,0.962855935]},{"name":"Ankle_L","children":[39],"translation":[-0.3771233,1.31694989E-07,-8.411038E-07],"rotation":[0.857670069,-0.507213,-0.03975271,-0.0745435953]},{"name":"LowerLeg_L","children":[40],"translation":[-0.3993092,-3.805026E-07,1.465494E-16],"rotation":[0.6443777,-0.02446273,0.00473770872,0.76430136]},{"name":"UpperLeg_L","children":[41],"translation":[-0.04115778,-0.0269207489,0.0989671052],"rotation":[-0.7058717,-0.04177525,0.0641593561,0.70419]},{"name":"Toes_R","translation":[0.07295756,2.040087E-18,3.408713E-18],"rotation":[1.70514509E-14,0.7071068,-1.70514509E-14,0.7071068]},{"name":"Ball_R","children":[43],"translation":[0.1128404,-1.154632E-16,-2.113351E-17],"rotation":[-1.00884271E-15,-1.34942894E-15,0.2700158,0.962855935]},{"name":"Ankle_R","children":[44],"translation":[0.377123475,-7.771561E-17,1.681988E-16],"rotation":[0.857670069,-0.507213,-0.03975271,-0.0745435953]},{"name":"LowerLeg_R","children":[45],"translation":[0.399309,-6.883383E-17,-5.3342148E-17],"rotation":[0.6443777,-0.02446273,0.00473770872,0.76430136]},{"name":"UpperLeg_R","children":[46],"translation":[-0.0411576778,-0.0269206986,-0.09896705],"rotation":[0.04177525,-0.7058717,0.70419,-0.0641593561]},{"name":"Hips","children":[37,42,47],"translation":[0,0.8762761,0],"rotation":[0.461136639,0.5360532,0.461136639,0.5360532]},{"name":"Root","children":[48]},{"name":"MercenaryMale","children":[0,49]}],"buffers":[{"uri":"MercenaryMale.bin","byteLength":179352}],"bufferViews":[{"buffer":0,"byteLength":10152},{"buffer":0,"byteLength":141000,"byteOffset":10152,"byteStride":40},{"buffer":0,"byteLength":28200,"byteOffset":151152,"byteStride":8}],"accessors":[{"bufferView":1,"componentType":5126,"count":3525,"type":"VEC3","max":[1.02264571,1.7880888,0.139457956],"min":[-1.02243781,-0.00329840183,-0.165685281]},{"bufferView":1,"componentType":5126,"count":3525,"type":"VEC3","byteOffset":12},{"bufferView":1,"componentType":5126,"count":3525,"type":"VEC4","byteOffset":24},{"bufferView":2,"componentType":5126,"count":3525,"type":"VEC2"},{"bufferView":0,"componentType":5123,"count":5076,"type":"SCALAR"}],"images":[{"name":"PolygonBattleRoyale_Texture_01_A.jpg","uri":"PolygonBattleRoyale_Texture_01_A.jpg","mimeType":"image/jpeg"}],"materials":[{"name":"PolygonBattleRoyale_01_A","pbrMetallicRoughness":{"metallicFactor":0,"roughnessFactor":0.8,"baseColorTexture":{"index":0}}}],"meshes":[{"name":"Character_MercenaryMale_01","primitives":[{"attributes":{"POSITION":0,"NORMAL":1,"TANGENT":2,"TEXCOORD_0":3},"indices":4,"material":0}]}],"scene":0,"scenes":[{"name":"MercenaryMale","nodes":[50]}],"textures":[{"source":0}]}