# Blender v2.93.1 OBJ File: ''
# www.blender.org
mtllib ConcreteBase.mtl
o SM_Env_Concrete_Base_01_Mesh
v 0.000000 0.000000 0.000000
v 5.000000 0.000000 0.000000
v 0.034779 0.074836 -0.034779
v 4.992694 0.039709 -0.007306
v 0.007892 0.042897 -4.992107
v 4.965221 0.074837 -4.965221
v 0.000000 0.000001 -5.000000
v 5.000000 0.000001 -5.000000
v 0.013792 0.037963 -2.500000
v 4.986208 0.037963 -2.500000
v 5.000000 0.000000 -2.500000
v 0.000000 0.000000 -2.500000
v 2.500000 0.000000 -2.500000
v 2.500000 0.000001 -5.000000
v 2.500000 0.037963 -4.986208
v 2.500000 0.037963 -2.500000
v 2.500000 0.037963 -0.013792
v 2.500000 0.000000 0.000000
v 2.453917 0.074837 -4.965221
v 2.453267 0.037963 -2.500000
v 2.477567 0.055821 -0.013792
v 2.453267 0.000000 0.000000
v 2.453267 0.000000 -2.500000
v 2.453267 0.000001 -5.000000
v 2.546733 0.000000 -2.500000
v 2.546733 0.000000 0.000000
v 2.546083 0.074836 -0.034779
v 2.546733 0.037963 -2.500000
v 2.546083 0.074837 -4.965221
v 2.546733 0.000001 -5.000000
v 5.000000 0.000000 -2.461402
v 4.986208 0.058586 -2.478604
v 2.546339 0.074836 -2.461728
v 2.500000 0.037963 -2.461402
v 2.453661 0.074836 -2.461728
v 0.034779 0.074836 -2.461939
v 0.000000 0.000000 -2.461402
v 2.453267 0.000000 -2.461402
v 2.500000 0.000000 -2.461402
v 2.546733 0.000000 -2.461402
v 5.000000 0.000000 -2.538598
v 4.965221 0.074837 -2.538061
v 2.546733 0.058243 -2.521157
v 2.500000 0.037963 -2.538598
v 2.453661 0.074837 -2.538272
v 0.034779 0.074837 -2.538061
v 0.000000 0.000000 -2.538598
v 2.453267 0.000000 -2.538598
v 2.500000 0.000000 -2.538598
v 2.546733 0.000000 -2.538598
v 4.181740 0.074836 -0.034779
v 4.965221 0.074836 -0.667666
v 4.724625 0.074836 -0.131016
v 4.882419 0.074836 -0.290107
v 4.993132 0.037327 -0.196183
v 4.702176 0.044379 -0.008165
v 4.965221 0.074836 -2.211666
v 4.875309 0.074836 -2.461931
v 4.992120 0.042830 -2.461524
v 3.890253 0.074837 -4.965221
v 4.715771 0.074837 -4.965221
v 4.530928 0.074837 -4.906142
v 4.124854 0.074837 -4.921461
v 4.311505 0.043129 -4.992064
v 4.965221 0.074837 -3.414253
v 4.965221 0.074837 -4.129598
v 4.911151 0.074837 -3.881155
v 4.989772 0.055590 -3.886046
v 2.546266 0.074837 -3.229127
v 3.004054 0.074837 -2.538232
v 2.524371 0.057257 -2.538598
v 2.600744 0.074837 -2.769990
v 2.693495 0.074837 -2.581317
v 2.653077 0.059896 -2.522881
v 2.528757 0.060748 -2.756718
v 2.453846 0.074836 -0.713662
v 2.298526 0.074836 -0.034779
v 2.453368 0.029386 -0.005407
v 2.364525 0.074836 -0.188352
v 2.481229 0.052891 -0.188477
v 0.034779 0.074836 -0.818793
v 0.034779 0.074836 -1.843467
v 0.103790 0.074836 -1.678793
v 0.103819 0.074836 -1.357692
v 0.008481 0.046098 -1.393499
v 1.088284 0.074837 -2.538153
v 0.631965 0.074837 -2.538113
v 0.884611 0.074837 -2.606908
v 0.892418 0.055386 -2.518076
v 0.291529 0.074837 -4.965221
v 0.034779 0.074837 -4.673462
v 0.110601 0.074837 -4.888986
v 1.716915 0.074837 -4.965221
v 2.277985 0.074837 -4.965221
v 2.069425 0.074837 -4.925809
v 2.045658 0.046089 -4.991520
v 3.720896 0.074837 -4.351224
v 3.161230 0.074837 -3.561187
v 3.606851 0.074837 -2.916202
v 4.658771 0.074837 -4.561509
v 3.933774 0.074837 -3.944171
v 3.827335 0.057256 -4.147697
v 3.547502 0.057256 -3.752679
v 0.553123 0.074836 -0.812034
v 0.644294 0.074836 -2.241131
v 0.731688 0.054385 -1.542894
v 1.065920 0.074836 -1.409864
v 0.317093 0.074836 -1.518737
v 4.496436 0.074836 -1.136060
v 4.333690 0.074836 -0.566529
v 3.947370 0.074836 -0.386333
v 3.238515 0.074836 -0.389183
v 2.700320 0.074836 -1.129656
v 3.538553 0.074836 -1.893753
v 3.418895 0.045462 -1.163251
v 4.007451 0.045462 -0.821755
vt 0.059264 0.351316
vt 0.059264 0.351316
vt 0.059264 0.351316
vt 0.059264 0.351316
vt 0.059264 0.351316
vt 0.059264 0.351316
vt 0.059264 0.351316
vt 0.059264 0.351316
vt 0.059264 0.351316
vt 0.059264 0.351316
vt 0.059264 0.351316
vt 0.059264 0.351316
vt 0.059264 0.351316
vt 0.059264 0.351316
vt 0.059264 0.351316
vt 0.059264 0.351316
vt 0.059264 0.351316
vt 0.059264 0.351316
vt 0.059264 0.351316
vt 0.059264 0.351316
vt 0.059264 0.351316
vt 0.059264 0.351316
vt 0.059264 0.351316
vt 0.059264 0.351316
vt 0.059264 0.351316
vt 0.059264 0.351316
vt 0.059264 0.351316
vt 0.059264 0.351316
vt 0.059264 0.351316
vt 0.059264 0.351316
vt 0.059264 0.351316
vt 0.059264 0.351316
vt 0.059264 0.351316
vt 0.059264 0.351316
vt 0.059264 0.351316
vt 0.059264 0.351316
vt 0.059264 0.351316
vt 0.059264 0.351316
vt 0.059264 0.351316
vt 0.059264 0.351316
vt 0.059264 0.351316
vt 0.059264 0.351316
vt 0.059264 0.351316
vt 0.059264 0.351316
vt 0.059264 0.351316
vt 0.059264 0.351316
vt 0.059264 0.351316
vt 0.059264 0.351316
vt 0.059264 0.351316
vt 0.059264 0.351316
vt 0.059264 0.351316
vt 0.059264 0.351316
vt 0.059264 0.351316
vt 0.059264 0.351316
vt 0.059264 0.351316
vt 0.059264 0.351316
vt 0.059264 0.351316
vt 0.059264 0.351316
vt 0.059264 0.351316
vt 0.059264 0.376960
vt 0.059264 0.376960
vt 0.059264 0.376960
vt 0.059264 0.376960
vt 0.059264 0.376960
vt 0.059264 0.351316
vt 0.059264 0.351316
vt 0.059264 0.351316
vt 0.059264 0.351316
vt 0.059264 0.351316
vt 0.059264 0.351316
vt 0.059264 0.351316
vt 0.059264 0.351316
vt 0.059264 0.351316
vt 0.059264 0.351316
vt 0.059264 0.351316
vt 0.059264 0.376960
vt 0.059264 0.376960
vt 0.059264 0.376960
vt 0.059264 0.351316
vt 0.059264 0.376960
vt 0.059264 0.376960
vt 0.059264 0.376960
vt 0.059264 0.376960
vt 0.059264 0.351316
vt 0.059264 0.351316
vt 0.059264 0.351316
vt 0.059264 0.351316
vt 0.059264 0.351316
vt 0.059264 0.351316
vt 0.059264 0.351316
vt 0.059264 0.351316
vt 0.059264 0.351316
vt 0.059264 0.351316
vt 0.059264 0.351316
vt 0.059264 0.351316
vt 0.059264 0.351316
vt 0.059264 0.351316
vt 0.059264 0.376960
vt 0.059264 0.376960
vt 0.059264 0.376960
vt 0.059264 0.351316
vt 0.059264 0.351316
vt 0.059264 0.351316
vt 0.059264 0.351316
vt 0.059264 0.351316
vt 0.059264 0.351316
vt 0.059264 0.351316
vt 0.059264 0.351316
vt 0.059264 0.351316
vt 0.059264 0.351316
vt 0.059264 0.351316
vt 0.059264 0.376960
vt 0.059264 0.376960
vt 0.059264 0.376960
vt 0.059264 0.376960
vt 0.059264 0.376960
vt 0.059264 0.376960
vt 0.059264 0.376960
vt 0.059264 0.376960
vt 0.059264 0.376960
vt 0.059264 0.376960
vt 0.059264 0.376960
vt 0.059264 0.376960
vt 0.059264 0.376960
vt 0.059264 0.376960
vt 0.059264 0.376960
vt 0.059264 0.376960
vt 0.059264 0.376960
vt 0.059264 0.376960
vt 0.059264 0.376960
vt 0.059264 0.376960
vt 0.059264 0.376960
vt 0.059264 0.376960
vt 0.059264 0.376960
vt 0.059264 0.376960
vt 0.059264 0.376960
vt 0.059264 0.376960
vt 0.059264 0.376960
vt 0.059264 0.376960
vt 0.059264 0.376960
vt 0.059264 0.376960
vt 0.059264 0.376960
vt 0.059264 0.376960
vt 0.059264 0.376960
vt 0.059264 0.376960
vt 0.059264 0.376960
vt 0.059264 0.376960
vt 0.059264 0.376960
vt 0.059264 0.376960
vt 0.059264 0.376960
vt 0.059264 0.376960
vt 0.059264 0.376960
vt 0.059264 0.376960
vt 0.059264 0.376960
vt 0.059264 0.376960
vt 0.059264 0.376960
vt 0.059264 0.376960
vt 0.059264 0.376960
vt 0.059264 0.376960
vt 0.059264 0.376960
vn 0.0504 0.3952 0.9172
vn -0.3053 0.8776 0.3696
vn 0.0504 0.3952 -0.9172
vn 0.0000 -1.0000 -0.0000
vn 0.9167 0.3950 -0.0610
vn -0.9167 0.3950 -0.0609
vn -0.6237 0.7816 -0.0000
vn 0.8822 0.4709 0.0004
vn -0.8775 0.4796 -0.0087
vn -0.0504 0.3952 -0.9172
vn 0.3374 0.8481 0.4085
vn 0.0000 0.7194 0.6946
vn 0.0000 0.7188 0.6952
vn 0.0001 0.7181 0.6959
vn 0.1358 0.9905 0.0200
vn -0.0708 0.3599 0.9303
vn 0.0240 0.4671 -0.8839
vn 0.0000 0.1810 0.9835
vn 0.0000 1.0000 0.0000
vn -0.0001 0.7180 0.6961
vn -0.0000 0.7191 0.6949
vn -0.0000 0.7208 0.6932
vn 0.0138 0.4642 -0.8856
vn 0.9642 0.2437 -0.1048
vn -0.0000 0.7192 -0.6948
vn -0.3374 0.8481 -0.4085
vn 0.3374 0.8481 -0.4085
vn -0.9167 0.3950 0.0609
vn 0.8647 0.5022 0.0086
vn -0.0507 0.9969 -0.0596
vn -0.6221 0.7829 0.0000
vn -0.6210 0.7838 0.0000
vn -0.6239 0.7815 0.0001
vn 0.6237 0.7816 0.0000
vn -0.9106 0.4132 0.0023
vn 0.2742 0.9598 0.0601
vn 0.0440 0.9678 0.2480
vn 0.1878 0.9565 0.2234
vn 0.0161 0.9998 -0.0126
vn 0.1375 0.9893 -0.0494
vn 0.9170 0.3961 0.0480
vn 0.0143 0.9257 -0.3780
vn 0.0536 0.9562 -0.2876
vn -0.0635 0.9780 -0.1987
vn 0.2361 0.9713 -0.0273
vn 0.2405 0.9692 0.0523
vn -0.1881 0.9819 0.0223
vn -0.0556 0.9983 0.0149
vn -0.0315 0.9734 0.2271
vn -0.1891 0.9769 0.0991
vn -0.0153 0.9998 0.0118
vn -0.0016 0.4188 0.9081
vn 0.0809 0.2508 0.9646
vn 0.6228 0.7824 -0.0000
vn 0.6234 0.7819 -0.0000
vn 0.1847 0.9823 0.0314
vn -0.1324 0.9896 0.0555
vn -0.2762 0.9604 -0.0354
vn -0.2886 0.9574 0.0000
vn 0.0568 0.9763 0.2088
vn -0.0741 0.9728 0.2195
vn -0.2233 0.9716 -0.0785
vn -0.0895 0.9731 -0.2123
vn -0.0714 0.9230 -0.3780
vn 0.0463 0.9089 -0.4144
vn -0.0045 0.4872 -0.8733
vn 0.0000 0.1810 -0.9835
vn -0.0003 0.4899 -0.8718
vn -0.8764 0.4815 0.0068
vn -0.9835 0.1810 0.0000
vn -0.0039 0.4894 0.8721
vn 0.9835 0.1810 0.0000
vn 0.8559 0.5170 -0.0103
vn 0.0000 0.7199 0.6941
vn 0.0000 0.7194 0.6945
vn -0.6250 0.7806 0.0001
vn 0.6225 0.7826 -0.0000
vn 0.0000 0.7219 0.6920
vn -0.0539 0.9984 -0.0172
vn -0.0699 0.9963 -0.0495
vn 0.0173 0.9969 0.0771
vn 0.0699 0.9963 0.0495
vn 0.0339 0.9992 -0.0234
vn -0.0455 0.9982 -0.0391
vn -0.0764 0.9963 0.0387
vn 0.0483 0.9987 -0.0161
vn 0.0506 0.9985 0.0229
vn 0.0430 0.9980 0.0472
vn -0.0734 0.9971 -0.0210
vn 0.0395 0.9988 -0.0287
vn -0.0335 0.9969 -0.0719
vn -0.0282 0.9988 0.0397
vn 0.0122 0.9989 -0.0461
usemtl lambert1
s 1
f 17/1/1 18/2/1 26/3/1 27/4/1
f 43/5/2 71/6/2 44/7/2 16/8/2 28/9/2
f 14/10/3 15/11/3 29/12/3 30/13/3
f 13/14/4 49/15/4 50/16/4 25/17/4
f 10/18/5 11/19/5 41/20/5 42/21/5
f 46/22/6 47/23/6 12/24/6 9/25/6
f 33/26/7 34/27/7 17/1/7 27/4/7
f 55/28/8 31/29/8 59/30/8 57/31/8 52/32/8
f 18/2/4 39/33/4 40/34/4 26/3/4
f 36/35/9 37/36/9 85/37/9 82/38/9
f 23/39/4 48/40/4 49/15/4 13/14/4
f 24/41/10 19/42/10 15/11/10 14/10/10
f 44/7/11 45/43/11 20/44/11 16/8/11
f 22/45/4 38/46/4 39/33/4 18/2/4
f 9/25/12 89/47/13 87/48/14 46/22/14
f 80/49/15 79/50/15 77/51/15 21/52/15
f 77/51/16 78/53/16 21/52/16
f 37/36/4 38/46/4 22/45/4 1/54/4
f 47/23/4 48/40/4 23/39/4 12/24/4
f 24/41/17 96/55/17 94/56/17 19/42/17
f 26/3/4 40/34/4 31/29/4 2/57/4
f 56/58/18 26/3/18 2/57/18 4/59/18
f 57/60/19 58/61/19 109/62/19 110/63/19 53/64/19
f 42/21/20 70/65/20 74/66/21 10/18/22
f 8/67/23 64/68/23 61/69/23 6/70/23
f 25/17/4 50/16/4 41/20/4 11/19/4
f 32/71/24 59/30/24 31/29/24 11/19/24 10/18/24
f 28/9/25 33/26/25 58/72/25 32/71/25 10/18/25
f 16/8/26 34/27/26 33/26/26 28/9/26
f 20/44/27 35/73/27 34/27/27 16/8/27
f 36/35/25 35/73/25 20/44/25 9/25/25
f 9/25/28 12/24/28 37/36/28 36/35/28
f 12/24/4 23/39/4 38/46/4 37/36/4
f 39/33/4 38/46/4 23/39/4 13/14/4
f 40/34/4 39/33/4 13/14/4 25/17/4
f 31/29/4 40/34/4 25/17/4 11/19/4
f 42/21/29 41/20/29 68/74/29 65/75/29
f 100/76/30 102/77/30 101/78/30
f 15/11/31 44/7/32 71/6/32 75/79/33
f 19/42/34 45/43/34 44/7/34 15/11/34
f 91/80/19 88/81/19 95/82/19 93/83/19
f 7/84/35 47/23/35 46/22/35 91/85/35 5/86/35
f 7/84/4 24/41/4 48/40/4 47/23/4
f 49/15/4 48/40/4 24/41/4 14/10/4
f 50/16/4 49/15/4 14/10/4 30/13/4
f 41/20/4 50/16/4 30/13/4 8/67/4
f 52/32/36 54/87/36 55/28/36
f 56/58/37 53/88/37 51/89/37
f 55/28/38 54/87/38 53/88/38 56/58/38
f 55/28/39 56/58/39 4/59/39
f 32/71/40 58/72/40 57/31/40
f 57/31/41 59/30/41 32/71/41
f 64/68/42 63/90/42 62/91/42
f 60/92/43 63/90/43 64/68/43
f 64/68/44 62/91/44 61/69/44
f 68/74/45 67/93/45 65/75/45
f 66/94/46 67/93/46 68/74/46
f 75/79/47 72/95/47 69/96/47
f 75/79/48 71/6/48 43/5/48
f 70/65/49 73/97/49 74/66/49
f 74/66/50 73/97/50 72/95/50 75/79/50
f 74/66/51 75/79/51 43/5/51
f 81/98/19 104/99/19 84/100/19
f 1/54/52 22/45/52 78/53/52 77/51/52 3/101/52
f 21/52/53 78/53/53 22/45/53 18/2/53 17/1/53
f 34/27/54 35/73/34 76/102/34 80/49/55
f 76/102/56 79/50/56 80/49/56
f 85/37/57 83/103/57 82/38/57
f 81/104/58 84/105/58 85/37/58
f 85/37/59 84/105/59 83/103/59
f 89/47/60 88/106/60 87/48/60
f 86/107/61 88/106/61 89/47/61
f 91/85/62 92/108/62 5/86/62
f 5/86/63 92/108/63 90/109/63
f 96/55/64 95/110/64 94/56/64
f 93/111/65 95/110/65 96/55/65
f 62/112/19 100/76/19 61/113/19
f 29/114/19 97/115/19 63/116/19 60/117/19
f 65/118/19 99/119/19 42/120/19
f 51/121/19 110/63/19 111/122/19
f 57/60/19 53/64/19 54/123/19 52/124/19
f 83/125/19 105/126/19 36/127/19 82/128/19
f 84/100/19 104/99/19 108/129/19 83/125/19
f 46/130/19 87/131/19 88/81/19 91/80/19
f 94/132/19 45/133/19 19/134/19
f 91/80/19 93/83/19 90/135/19 92/136/19
f 95/82/19 88/81/19 86/137/19 45/133/19 94/132/19
f 30/13/66 29/12/66 60/92/66 64/68/66
f 30/13/67 64/68/67 8/67/67
f 5/86/68 90/109/68 93/111/68 96/55/68 7/84/68
f 7/84/67 96/55/67 24/41/67
f 85/37/69 1/54/69 3/101/69 81/104/69
f 85/37/70 37/36/70 1/54/70
f 27/4/71 26/3/71 56/58/71 51/89/71
f 2/57/72 31/29/72 55/28/72 4/59/72
f 68/74/73 8/67/73 6/70/73 66/94/73
f 68/74/72 41/20/72 8/67/72
f 89/47/13 20/44/74 45/43/75 86/107/75
f 9/25/12 20/44/74 89/47/13
f 15/11/31 75/79/33 69/96/76 29/12/76
f 34/27/54 80/49/55 21/52/77 17/1/77
f 10/18/22 74/66/21 43/5/78 28/9/78
f 99/119/19 98/138/19 72/139/19 73/140/19
f 100/76/19 101/78/19 67/141/19
f 63/116/19 97/115/19 100/76/19 62/112/19
f 98/138/19 69/142/19 72/139/19
f 101/78/79 103/143/79 99/119/79
f 67/141/19 101/78/19 99/119/19 65/118/19
f 101/78/80 102/77/80 103/143/80
f 29/114/19 69/142/19 98/138/19 97/115/19
f 61/113/19 66/144/19 6/145/19
f 66/144/19 100/76/19 67/141/19
f 61/113/19 100/76/19 66/144/19
f 100/76/81 97/115/81 102/77/81
f 103/143/82 102/77/82 97/115/82 98/138/82
f 99/119/83 103/143/83 98/138/83
f 42/120/19 99/119/19 73/140/19 70/146/19
f 104/99/84 107/147/84 106/148/84
f 36/127/19 105/126/19 35/149/19
f 104/99/19 77/150/19 79/151/19
f 3/152/19 77/150/19 104/99/19 81/98/19
f 105/126/85 106/148/85 107/147/85
f 83/125/19 108/129/19 105/126/19
f 76/153/19 107/147/19 104/99/19 79/151/19
f 105/126/19 107/147/19 76/153/19 35/149/19
f 108/129/86 104/99/86 106/148/86
f 105/126/87 108/129/87 106/148/87
f 113/154/88 115/155/88 114/156/88
f 53/64/19 110/63/19 51/121/19
f 27/157/19 112/158/19 113/154/19
f 51/121/19 111/122/19 112/158/19 27/157/19
f 27/157/19 113/154/19 33/159/19
f 33/159/19 114/156/19 58/61/19
f 33/159/19 113/154/19 114/156/19
f 58/61/19 114/156/19 109/62/19
f 109/62/89 116/160/89 110/63/89
f 112/158/90 115/155/90 113/154/90
f 110/63/91 116/160/91 111/122/91
f 109/62/92 114/156/92 115/155/92 116/160/92
f 111/122/93 116/160/93 115/155/93 112/158/93
