# Blender v2.93.1 OBJ File: ''
# www.blender.org
mtllib Barrel.mtl
o SM_Prop_Barrel_01_Mesh
v 0.151997 0.332659 0.057131
v 0.101462 0.332659 0.057131
v 0.076195 0.332659 0.100895
v 0.101462 0.332659 0.144660
v 0.151997 0.332659 0.144660
v 0.177264 0.332659 0.100895
v 0.151038 0.355812 0.058791
v 0.102420 0.355812 0.058791
v 0.078111 0.355812 0.100895
v 0.102420 0.355812 0.143000
v 0.151038 0.355812 0.143000
v 0.175347 0.355812 0.100895
v 0.126729 0.355812 0.100895
v -0.132168 0.332659 -0.101834
v -0.166841 0.332659 -0.101834
v -0.184178 0.332659 -0.071807
v -0.166841 0.332659 -0.041779
v -0.132168 0.332659 -0.041779
v -0.114833 0.332659 -0.071807
v -0.132826 0.348544 -0.100695
v -0.166184 0.348544 -0.100695
v -0.182863 0.348544 -0.071807
v -0.166184 0.348544 -0.042918
v -0.132826 0.348544 -0.042918
v -0.116147 0.348544 -0.071807
v -0.149505 0.348544 -0.071807
v -0.162575 -0.244486 -0.260439
v 0.145847 -0.244486 -0.260439
v 0.145847 0.061104 -0.260439
v -0.162575 0.061104 -0.260439
v -0.162575 -0.244486 0.273763
v 0.145847 -0.244486 0.273763
v 0.145847 0.061103 0.273763
v -0.162575 0.061103 0.273763
v 0.155588 -0.557690 -0.277312
v -0.172316 -0.557690 -0.277312
v -0.336269 -0.557690 0.006662
v -0.172316 -0.557690 0.290636
v 0.155588 -0.557690 0.290636
v 0.319541 -0.557690 0.006662
v 0.155588 0.350341 -0.277312
v -0.172316 0.350341 -0.277312
v -0.336269 0.350341 0.006662
v -0.172316 0.350341 0.290636
v 0.155588 0.350341 0.290636
v 0.319541 0.350341 0.006662
v -0.172316 0.332659 -0.277312
v -0.336269 0.332659 0.006662
v -0.172316 0.332659 0.290636
v 0.155588 0.332659 0.290636
v 0.319541 0.332659 0.006662
v 0.155588 0.332659 -0.277312
v -0.172316 -0.539001 -0.277312
v -0.336269 -0.539001 0.006662
v -0.172316 -0.539001 0.290636
v 0.155589 -0.539001 0.290636
v 0.319541 -0.539001 0.006662
v 0.155589 -0.539001 -0.277312
v 0.307011 0.322924 0.006662
v 0.149323 0.322924 0.279785
v -0.166051 0.322924 0.279785
v -0.323739 0.322924 0.006662
v -0.166051 0.322924 -0.266461
v 0.149323 0.322924 -0.266461
v -0.166051 -0.527360 -0.266461
v -0.323739 -0.527360 0.006662
v -0.166051 -0.527360 0.279785
v 0.149323 -0.527360 0.279785
v 0.307011 -0.527360 0.006662
v 0.149323 -0.527360 -0.266461
v 0.144101 -0.557690 -0.257415
v -0.160829 -0.557690 -0.257415
v -0.313292 -0.557690 0.006662
v -0.160829 -0.557690 0.270739
v 0.144101 -0.557690 0.270739
v 0.296566 -0.557690 0.006662
v 0.144101 0.350341 -0.257415
v -0.160829 0.350341 -0.257415
v -0.313292 0.350341 0.006662
v -0.160829 0.350341 0.270739
v 0.144101 0.350341 0.270739
v 0.296566 0.350341 0.006662
v 0.137869 -0.539001 -0.246621
v -0.154596 -0.539001 -0.246621
v -0.008363 -0.539001 0.006662
v -0.300829 -0.539001 0.006662
v -0.154596 -0.539001 0.259945
v 0.137869 -0.539001 0.259945
v 0.284102 -0.539001 0.006662
v 0.137869 0.332659 -0.246621
v -0.154596 0.332659 -0.246621
v -0.008363 0.332659 0.006662
v -0.300829 0.332659 0.006662
v -0.154596 0.332659 0.259945
v 0.137869 0.332659 0.259945
v 0.284102 0.332659 0.006662
v 0.300058 0.061104 0.006662
v -0.316786 0.061104 0.006662
v -0.316786 -0.244486 0.006662
v 0.300058 -0.244486 0.006662
v -0.162575 -0.297146 -0.260439
v -0.316786 -0.280656 0.006662
v -0.162575 -0.297146 0.273763
v 0.145847 -0.280656 0.273763
v 0.300058 -0.297146 0.006662
v 0.145847 -0.280656 -0.260439
v 0.308509 -0.262054 0.006662
v 0.150073 -0.262055 0.281083
v -0.166801 -0.262055 0.281083
v -0.325238 -0.262054 0.006662
v -0.166801 -0.262054 -0.267759
v 0.150073 -0.262054 -0.267759
v 0.300058 0.095504 0.006662
v 0.145847 0.104851 0.273763
v -0.162575 0.095504 0.273763
v -0.316786 0.104851 0.006662
v -0.162575 0.095504 -0.260439
v 0.145847 0.104851 -0.260439
v -0.166801 0.078965 -0.267759
v -0.325238 0.078965 0.006662
v -0.166801 0.078964 0.281083
v 0.150073 0.078964 0.281083
v 0.308509 0.078965 0.006662
v 0.150073 0.078965 -0.267759
v -0.162574 -0.472260 -0.260439
v -0.316786 -0.419761 0.006662
v -0.162574 -0.482551 0.273763
v 0.145847 -0.431232 0.273763
v 0.300058 -0.472260 0.006662
v 0.145847 -0.431232 -0.260439
v -0.265266 -0.420724 -0.082573
v 0.197367 -0.479160 0.184527
v 0.042807 -0.473834 -0.260439
v 0.046365 -0.424832 0.273763
v 0.300058 0.252825 0.006662
v 0.145847 0.271118 0.273763
v -0.162575 0.234171 0.273763
v -0.316786 0.271118 0.006662
v -0.162575 0.274396 -0.260439
v 0.145847 0.229392 -0.260439
v -0.045320 0.250923 0.273763
v 0.222680 0.230365 0.140684
v -0.002439 0.272700 -0.260439
v -0.242643 0.233550 -0.121758
v -0.112968 0.224347 0.273763
v -0.090227 0.136779 0.273763
v -0.057661 0.137078 0.273763
v 0.246272 0.244652 -0.086497
v 0.272544 0.248644 -0.040992
v 0.252525 0.175469 -0.075667
v 0.265288 0.164775 -0.053562
v 0.075761 0.249861 -0.260439
v 0.111225 0.239504 -0.260439
v 0.078924 0.137797 -0.260439
v 0.111308 0.146341 -0.260439
v 0.049044 0.257664 -0.260439
v 0.018045 0.224168 -0.260439
v 0.042479 0.206570 -0.260439
vt 0.102542 0.230625
vt 0.102542 0.230625
vt 0.102542 0.230625
vt 0.102542 0.230625
vt 0.102542 0.230625
vt 0.102542 0.230625
vt 0.102542 0.230625
vt 0.102542 0.230625
vt 0.102542 0.230625
vt 0.102542 0.230625
vt 0.102542 0.230625
vt 0.102542 0.230625
vt 0.102542 0.230625
vt 0.102542 0.230625
vt 0.102542 0.230625
vt 0.102542 0.230625
vt 0.102542 0.230625
vt 0.102542 0.230625
vt 0.102542 0.230625
vt 0.102542 0.230625
vt 0.102542 0.230625
vt 0.102542 0.230625
vt 0.102542 0.230625
vt 0.102542 0.230625
vt 0.102542 0.230625
vt 0.102542 0.230625
vt 0.205706 0.166339
vt 0.205706 0.166339
vt 0.205706 0.166339
vt 0.205706 0.166339
vt 0.205706 0.166339
vt 0.205706 0.166339
vt 0.205706 0.166339
vt 0.205706 0.166339
vt 0.205706 0.166339
vt 0.205706 0.166339
vt 0.205706 0.166339
vt 0.205706 0.166339
vt 0.205706 0.166339
vt 0.205706 0.166339
vt 0.205706 0.166339
vt 0.205706 0.166339
vt 0.205706 0.166339
vt 0.205706 0.166339
vt 0.205706 0.166339
vt 0.205706 0.166339
vt 0.205706 0.166339
vt 0.205706 0.166339
vt 0.205706 0.166339
vt 0.205706 0.166339
vt 0.205706 0.166339
vt 0.205706 0.166339
vt 0.205706 0.166339
vt 0.205706 0.166339
vt 0.205706 0.166339
vt 0.205706 0.166339
vt 0.205706 0.166339
vt 0.205706 0.166339
vt 0.205706 0.166339
vt 0.205706 0.166339
vt 0.205706 0.166339
vt 0.205706 0.166339
vt 0.205706 0.166339
vt 0.205706 0.166339
vt 0.205706 0.166339
vt 0.205706 0.166339
vt 0.205706 0.166339
vt 0.205706 0.166339
vt 0.205706 0.166339
vt 0.205706 0.166339
vt 0.205706 0.166339
vt 0.205706 0.166339
vt 0.205706 0.166339
vt 0.205706 0.166339
vt 0.205706 0.166339
vt 0.205706 0.166339
vt 0.205706 0.166339
vt 0.205706 0.166339
vt 0.205706 0.166339
vt 0.205706 0.166339
vt 0.205706 0.166339
vt 0.205706 0.166339
vt 0.205706 0.166339
vt 0.205706 0.166339
vt 0.205706 0.166339
vt 0.205706 0.166339
vt 0.205706 0.166339
vt 0.205706 0.166339
vt 0.205706 0.166339
vt 0.205706 0.166339
vt 0.205706 0.166339
vt 0.205706 0.166339
vt 0.205706 0.166339
vt 0.205706 0.166339
vt 0.205706 0.166339
vt 0.205706 0.166339
vt 0.205706 0.166339
vt 0.205706 0.166339
vt 0.205706 0.166339
vt 0.205706 0.166339
vt 0.205706 0.166339
vt 0.205706 0.166339
vt 0.205706 0.166339
vt 0.205706 0.166339
vt 0.205706 0.166339
vt 0.205706 0.166339
vt 0.205706 0.166339
vt 0.205706 0.166339
vt 0.205706 0.166339
vt 0.205706 0.166339
vt 0.205706 0.166339
vt 0.205706 0.166339
vt 0.205706 0.166339
vt 0.205706 0.166339
vt 0.205706 0.166339
vt 0.205706 0.166339
vt 0.205706 0.166339
vt 0.205706 0.166339
vt 0.205706 0.166339
vt 0.205706 0.166339
vt 0.205706 0.166339
vt 0.205706 0.166339
vt 0.205706 0.166339
vt 0.205706 0.166339
vt 0.205706 0.166339
vt 0.205706 0.166339
vt 0.205706 0.166339
vt 0.205706 0.166339
vt 0.205706 0.166339
vt 0.205706 0.166339
vt 0.205706 0.166339
vt 0.205706 0.166339
vt 0.205706 0.166339
vt 0.205706 0.166339
vt 0.205706 0.166339
vt 0.205706 0.166339
vt 0.205706 0.166339
vt 0.205706 0.166339
vt 0.205706 0.166339
vt 0.205706 0.166339
vt 0.205706 0.166339
vt 0.205706 0.166339
vt 0.205706 0.166339
vt 0.205706 0.166339
vt 0.222678 0.168136
vt 0.222678 0.168136
vt 0.222678 0.168136
vt 0.222678 0.168136
vt 0.222678 0.168136
vt 0.222678 0.168136
vt 0.222678 0.168136
vt 0.222678 0.168136
vt 0.222678 0.168136
vt 0.222678 0.168136
vt 0.222678 0.168136
vt 0.222678 0.168136
vt 0.222678 0.168136
vt 0.222678 0.168136
vt 0.205706 0.166339
vt 0.222678 0.168136
vt 0.222678 0.168136
vt 0.222678 0.168136
vt 0.222678 0.168136
vt 0.222678 0.168136
vt 0.222678 0.168136
vt 0.222678 0.168136
vt 0.222678 0.168136
vt 0.222678 0.168136
vt 0.222678 0.168136
vt 0.222678 0.168136
vt 0.222678 0.168136
vt 0.222678 0.168136
vt 0.222678 0.168136
vt 0.222678 0.168136
vt 0.222678 0.168136
vt 0.222678 0.168136
vt 0.222678 0.168136
vt 0.222678 0.168136
vt 0.222678 0.168136
vt 0.222678 0.168136
vt 0.222678 0.168136
vt 0.222678 0.168136
vt 0.222678 0.168136
vt 0.205706 0.166339
vt 0.205706 0.166339
vt 0.205706 0.166339
vt 0.205706 0.166339
vt 0.205706 0.166339
vt 0.205706 0.166339
vt 0.222678 0.168136
vt 0.222678 0.168136
vt 0.205706 0.166339
vt 0.205706 0.166339
vt 0.222678 0.168136
vt 0.222678 0.168136
vt 0.222678 0.168136
vt 0.222678 0.168136
vt 0.222678 0.168136
vt 0.222678 0.168136
vt 0.205706 0.166339
vt 0.205706 0.166339
vt 0.205706 0.166339
vt 0.205706 0.166339
vt 0.205706 0.166339
vn 0.0000 0.0715 -0.9974
vn -0.8638 0.0715 -0.4987
vn -0.8638 0.0715 0.4987
vn 0.0000 0.0715 0.9974
vn 0.8638 0.0715 0.4987
vn 0.8638 0.0715 -0.4987
vn 0.0000 1.0000 0.0000
vn 0.0000 0.0000 -1.0000
vn 0.0000 -0.0000 1.0000
vn -0.8660 0.0000 -0.5000
vn -0.8660 0.0000 0.5000
vn 0.8660 0.0000 0.5000
vn 0.8660 0.0000 -0.5000
vn 0.0000 -1.0000 -0.0000
vn 0.5783 -0.7444 0.3339
vn 0.0000 -0.7444 0.6678
vn -0.5783 -0.7444 0.3339
vn -0.5783 -0.7444 -0.3339
vn 0.0000 -0.7444 -0.6678
vn 0.5783 -0.7444 -0.3339
vn -0.6335 0.6819 -0.3657
vn -0.6335 0.6819 0.3657
vn 0.0000 0.6819 0.7315
vn 0.6335 0.6819 0.3657
vn 0.6335 0.6819 -0.3657
vn 0.0000 0.6819 -0.7315
vn 0.0000 -0.5001 0.8660
vn 0.7499 -0.5001 0.4330
vn 0.7499 -0.5001 -0.4330
vn 0.0000 -0.5001 -0.8660
vn -0.7499 -0.5001 -0.4330
vn -0.7499 -0.5001 0.4330
vn 0.0000 0.5210 0.8535
vn 0.7392 0.5210 0.4268
vn 0.7392 0.5210 -0.4268
vn 0.0000 0.5210 -0.8535
vn -0.7392 0.5210 -0.4268
vn -0.7392 0.5210 0.4268
vn 0.8211 0.3262 0.4684
vn -0.0049 0.3262 0.9453
vn -0.8162 0.3262 0.4769
vn -0.8162 0.3262 -0.4769
vn -0.0049 0.3262 -0.9453
vn 0.8211 0.3262 -0.4684
vn -0.8390 -0.2630 -0.4764
vn -0.8390 -0.2630 0.4764
vn 0.0069 -0.2630 0.9648
vn 0.8320 -0.2630 0.4884
vn 0.8320 -0.2630 -0.4884
vn 0.0069 -0.2631 -0.9648
vn 0.7994 0.3846 0.4615
vn 0.0000 0.3846 0.9231
vn -0.7994 0.3846 0.4615
vn -0.7994 0.3846 -0.4615
vn 0.0000 0.3846 -0.9231
vn 0.7994 0.3846 -0.4615
vn -0.8013 -0.3792 -0.4627
vn -0.8013 -0.3792 0.4627
vn 0.0000 -0.3792 0.9253
vn 0.8013 -0.3792 0.4627
vn 0.8013 -0.3792 -0.4627
vn 0.0000 -0.3792 -0.9253
vn -0.8644 0.0559 -0.4997
vn -0.8593 0.0788 0.5053
vn -0.0084 0.0759 0.9971
vn 0.8783 0.0615 0.4741
vn 0.8659 0.0794 -0.4939
vn -0.0255 0.0616 -0.9978
vn -0.8604 0.0699 -0.5048
vn 0.8593 0.1173 0.4979
vn 0.0003 0.1105 -0.9939
vn 0.0040 0.0627 0.9980
vn 0.8440 -0.1175 0.5233
vn 0.0123 -0.1163 0.9931
vn -0.8670 -0.1164 0.4845
vn -0.8428 -0.1253 -0.5235
vn -0.0003 -0.1199 -0.9928
vn -0.0010 -0.1221 -0.9925
vn -0.0013 -0.1232 -0.9924
vn 0.8641 -0.0765 -0.4975
vn 0.8658 -0.0685 -0.4957
vn 0.8640 -0.0786 -0.4973
vn 0.8639 -0.0783 -0.4975
vn 0.0093 -0.0560 0.9984
vn 0.0124 -0.0543 0.9984
vn 0.0198 -0.0503 0.9985
vn 0.8690 -0.0862 0.4873
vn -0.0186 -0.0636 -0.9978
vn -0.8745 -0.1174 -0.4706
vn 0.8642 -0.0649 0.4989
vn 0.0000 -0.0833 0.9965
vn -0.8640 -0.0677 0.4989
vn -0.8641 -0.0672 -0.4989
vn 0.0000 -0.1190 -0.9929
vn -0.0135 -0.0682 0.9976
vn 0.8661 -0.0859 -0.4925
vn 0.8667 -0.0641 -0.4948
vn -0.0186 -0.0635 -0.9978
usemtl lambert1
s 1
f 1/1/1 2/2/1 8/3/1 7/4/1
f 2/2/2 3/5/2 9/6/2 8/3/2
f 3/5/3 4/7/3 10/8/3 9/6/3
f 4/7/4 5/9/4 11/10/4 10/8/4
f 5/9/5 6/11/5 12/12/5 11/10/5
f 6/11/6 1/1/6 7/4/6 12/12/6
f 7/4/7 8/3/7 13/13/7
f 8/3/7 9/6/7 13/13/7
f 9/6/7 10/8/7 13/13/7
f 10/8/7 11/10/7 13/13/7
f 11/10/7 12/12/7 13/13/7
f 12/12/7 7/4/7 13/13/7
f 14/14/1 15/15/1 21/16/1 20/17/1
f 15/15/2 16/18/2 22/19/2 21/16/2
f 16/18/3 17/20/3 23/21/3 22/19/3
f 17/20/4 18/22/4 24/23/4 23/21/4
f 18/22/5 19/24/5 25/25/5 24/23/5
f 19/24/6 14/14/6 20/17/6 25/25/6
f 20/17/7 21/16/7 26/26/7
f 21/16/7 22/19/7 26/26/7
f 22/19/7 23/21/7 26/26/7
f 23/21/7 24/23/7 26/26/7
f 24/23/7 25/25/7 26/26/7
f 25/25/7 20/17/7 26/26/7
f 30/27/8 29/28/8 28/29/8 27/30/8
f 34/31/9 31/32/9 32/33/9 33/34/9
f 52/35/8 47/36/8 42/37/8 41/38/8
f 47/36/10 48/39/10 43/40/10 42/37/10
f 48/39/11 49/41/11 44/42/11 43/40/11
f 49/41/9 50/43/9 45/44/9 44/42/9
f 50/43/12 51/45/12 46/46/12 45/44/12
f 51/45/13 52/35/13 41/38/13 46/46/13
f 84/47/14 83/48/14 85/49/14
f 86/50/14 84/47/14 85/49/14
f 87/51/14 86/50/14 85/49/14
f 88/52/14 87/51/14 85/49/14
f 89/53/14 88/52/14 85/49/14
f 83/48/14 89/53/14 85/49/14
f 90/54/7 91/55/7 92/56/7
f 91/55/7 93/57/7 92/56/7
f 93/57/7 94/58/7 92/56/7
f 94/58/7 95/59/7 92/56/7
f 95/59/7 96/60/7 92/56/7
f 96/60/7 90/54/7 92/56/7
f 27/30/10 99/61/10 98/62/10 30/27/10
f 99/61/11 31/32/11 34/31/11 98/62/11
f 32/33/12 100/63/12 97/64/12 33/34/12
f 100/63/13 28/29/13 29/28/13 97/64/13
f 36/65/10 37/66/10 54/67/10 53/68/10
f 37/66/11 38/69/11 55/70/11 54/67/11
f 38/69/9 39/71/9 56/72/9 55/70/9
f 39/71/12 40/73/12 57/74/12 56/72/12
f 40/73/13 35/75/13 58/76/13 57/74/13
f 35/75/8 36/65/8 53/68/8 58/76/8
f 60/77/15 59/78/15 51/45/15 50/43/15
f 61/79/16 60/77/16 50/43/16 49/41/16
f 62/80/17 61/79/17 49/41/17 48/39/17
f 63/81/18 62/80/18 48/39/18 47/36/18
f 64/82/19 63/81/19 47/36/19 52/35/19
f 59/78/20 64/82/20 52/35/20 51/45/20
f 53/68/21 54/67/21 66/83/21 65/84/21
f 54/67/22 55/70/22 67/85/22 66/83/22
f 55/70/23 56/72/23 68/86/23 67/85/23
f 56/72/24 57/74/24 69/87/24 68/86/24
f 57/74/25 58/76/25 70/88/25 69/87/25
f 58/76/26 53/68/26 65/84/26 70/88/26
f 36/65/14 35/75/14 71/89/14 72/90/14
f 37/66/14 36/65/14 72/90/14 73/91/14
f 38/69/14 37/66/14 73/91/14 74/92/14
f 39/71/14 38/69/14 74/92/14 75/93/14
f 40/73/14 39/71/14 75/93/14 76/94/14
f 35/75/14 40/73/14 76/94/14 71/89/14
f 41/38/7 42/37/7 78/95/7 77/96/7
f 42/37/7 43/40/7 79/97/7 78/95/7
f 43/40/7 44/42/7 80/98/7 79/97/7
f 44/42/7 45/44/7 81/99/7 80/98/7
f 45/44/7 46/46/7 82/100/7 81/99/7
f 46/46/7 41/38/7 77/96/7 82/100/7
f 72/90/27 71/89/27 83/48/27 84/47/27
f 73/91/28 72/90/28 84/47/28 86/50/28
f 74/92/29 73/91/29 86/50/29 87/51/29
f 75/93/30 74/92/30 87/51/30 88/52/30
f 76/94/31 75/93/31 88/52/31 89/53/31
f 71/89/32 76/94/32 89/53/32 83/48/32
f 77/96/33 78/95/33 91/55/33 90/54/33
f 78/95/34 79/97/34 93/57/34 91/55/34
f 79/97/35 80/98/35 94/58/35 93/57/35
f 80/98/36 81/99/36 95/59/36 94/58/36
f 81/99/37 82/100/37 96/60/37 95/59/37
f 82/100/38 77/96/38 90/54/38 96/60/38
f 122/101/39 123/102/39 113/103/39 114/104/39
f 121/105/40 122/101/40 114/104/40 115/106/40
f 120/107/41 121/105/41 115/106/41 116/108/41
f 119/109/42 120/107/42 116/108/42 117/110/42
f 124/111/43 119/109/43 117/110/43 118/112/43
f 123/102/44 124/111/44 118/112/44 113/103/44
f 101/113/45 102/114/45 110/115/45 111/116/45
f 102/114/46 103/117/46 109/118/46 110/115/46
f 103/117/47 104/119/47 108/120/47 109/118/47
f 104/119/48 105/121/48 107/122/48 108/120/48
f 105/121/49 106/123/49 112/124/49 107/122/49
f 106/123/50 101/113/50 111/116/50 112/124/50
f 101/113/10 131/125/10 126/126/10 102/114/10
f 126/126/11 127/127/11 103/117/11 102/114/11
f 127/127/9 134/128/9 103/117/9
f 128/129/12 132/130/12 105/121/12 104/119/12
f 129/131/13 130/132/13 106/123/13 105/121/13
f 130/132/8 133/133/8 101/113/8 106/123/8
f 108/120/51 107/122/51 100/63/51 32/33/51
f 109/118/52 108/120/52 32/33/52 31/32/52
f 110/115/53 109/118/53 31/32/53 99/61/53
f 111/116/54 110/115/54 99/61/54 27/30/54
f 112/124/55 111/116/55 27/30/55 28/29/55
f 107/122/56 112/124/56 28/29/56 100/63/56
f 114/104/12 142/134/12 136/135/12
f 141/136/9 114/104/9 136/135/9
f 116/108/11 115/106/11 137/137/11 138/138/11
f 117/110/10 144/139/10 139/140/10
f 143/141/8 117/110/8 139/140/8
f 113/103/13 151/142/13 149/143/13 135/144/13
f 30/27/57 98/62/57 120/107/57 119/109/57
f 98/62/58 34/31/58 121/105/58 120/107/58
f 34/31/59 33/34/59 122/101/59 121/105/59
f 33/34/60 97/64/60 123/102/60 122/101/60
f 97/64/61 29/28/61 124/111/61 123/102/61
f 29/28/62 30/27/62 119/109/62 124/111/62
f 131/145/63 66/146/63 126/147/63
f 66/146/64 67/148/64 127/149/64 126/147/64
f 67/148/65 68/150/65 134/151/65 127/149/65
f 68/150/66 132/152/66 128/153/66
f 69/154/67 70/155/67 130/156/67 129/157/67
f 70/155/68 133/158/68 130/156/68
f 125/159/10 131/125/10 101/113/10
f 65/160/69 66/146/69 131/145/69 125/161/69
f 68/150/70 69/154/70 129/157/70 132/152/70
f 105/121/12 132/130/12 129/131/12
f 70/155/71 65/160/71 125/161/71 133/158/71
f 101/113/8 133/133/8 125/159/8
f 134/151/72 68/150/72 128/153/72
f 103/117/9 134/128/9 128/129/9 104/119/9
f 136/162/73 142/163/73 60/164/73
f 60/164/74 141/165/74 136/162/74
f 138/166/75 137/167/75 62/168/75
f 139/169/76 144/170/76 63/171/76
f 63/171/77 143/172/78 139/169/79
f 148/173/80 64/174/81 59/175/82 149/176/83
f 61/177/84 145/178/85 141/165/86
f 141/165/9 145/178/9 146/179/9 147/180/9
f 114/104/12 113/103/12 135/144/12 142/134/12
f 59/175/87 142/163/87 135/181/87
f 64/174/88 153/182/88 152/183/88
f 118/112/8 155/184/8 153/185/8 140/186/8
f 117/110/10 116/108/10 138/138/10 144/139/10
f 62/168/89 144/170/89 138/166/89
f 60/164/90 142/163/90 59/175/90
f 61/177/91 141/165/91 60/164/91
f 62/168/92 137/167/92 61/177/92
f 63/171/93 144/170/93 62/168/93
f 64/174/94 143/172/78 63/171/77
f 147/187/9 114/104/9 141/136/9
f 137/167/95 145/178/85 61/177/84
f 115/106/9 146/188/9 145/189/9 137/137/9
f 115/106/9 114/104/9 147/187/9 146/188/9
f 149/176/13 151/190/13 150/191/13 148/173/13
f 150/192/13 118/112/13 140/186/13 148/193/13
f 113/103/13 118/112/13 150/192/13 151/142/13
f 135/181/96 149/176/83 59/175/82
f 140/194/97 64/174/81 148/173/80
f 153/182/8 155/195/8 154/196/8 152/183/8
f 156/197/8 158/198/8 157/199/8 143/172/8
f 140/194/88 153/182/88 64/174/88
f 64/174/88 156/197/98 143/172/98
f 64/174/88 152/183/88 156/197/98
f 154/200/8 158/201/8 156/202/8 152/203/8
f 118/112/8 154/200/8 155/184/8
f 154/200/8 117/110/8 157/204/8 158/201/8
f 118/112/8 117/110/8 154/200/8
f 157/204/8 117/110/8 143/141/8
